<svg viewBox="0 0 24 24" fill="currentColor" xmlns="http://www.w3.org/2000/svg"><path d="M6.05 8.5a.75.75 0 0 0-.75.75v5.5a.75.75 0 0 0 1.5 0v-5.5a.75.75 0 0 0-.75-.75zm11.9 0a.75.75 0 0 0-.75.75v5.5a.75.75 0 0 0 1.5 0v-5.5a.75.75 0 0 0-.75-.75zM7.4 16.4a.9.9 0 0 0 .9.9h.7v2.1a.75.75 0 0 0 1.5 0v-2.1h2v2.1a.75.75 0 0 0 1.5 0v-2.1h.7a.9.9 0 0 0 .9-.9V8.7H7.4v7.7zM15.9 4.9l.9-1.2a.38.38 0 0 0-.6-.45l-.98 1.3a5.6 5.6 0 0 0-4.44 0l-.98-1.3a.38.38 0 0 0-.6.45l.9 1.2A4.9 4.9 0 0 0 7.6 8h8.8a4.9 4.9 0 0 0-2.5-3.1zM10.3 6.6a.4.4 0 1 1 .4-.4.4.4 0 0 1-.4.4zm3.4 0a.4.4 0 1 1 .4-.4.4.4 0 0 1-.4.4z"/></svg>