<svg viewBox="0 0 24 24" fill="currentColor" xmlns="http://www.w3.org/2000/svg"><path d="M17.05 12.04c0-2.05 1.67-3.02 1.74-3.07-.95-1.39-2.43-1.58-2.96-1.6-1.26-.13-2.46.74-3.11.74-.63 0-1.63-.72-2.68-.7-1.38.02-2.65.8-3.36 2.03-1.43 2.49-.37 6.18 1.03 8.2.68.99 1.5 2.11 2.55 2.07 1.02-.04 1.41-.66 2.65-.66 1.24 0 1.58.66 2.67.64 1.1-.02 1.8-1.01 2.48-2.01.78-1.16 1.1-2.28 1.12-2.34-.02-.01-2.15-.83-2.13-3.3zM15.1 6.22c.56-.68.94-1.63.84-2.57-.81.03-1.8.54-2.38 1.22-.52.6-.97 1.56-.85 2.48.9.07 1.82-.46 2.39-1.13z"/></svg>