<svg viewBox="0 0 24 24" fill="currentColor" xmlns="http://www.w3.org/2000/svg"><path d="M8.5 4C4.91 4 2 6.46 2 9.5c0 1.74.96 3.28 2.47 4.3L3.9 15.9l2.18-1.2c.77.2 1.58.3 2.42.3.3 0 .6-.02.9-.05a4.86 4.86 0 0 1-.15-1.2c0-3 2.84-5.42 6.35-5.42.23 0 .46.01.68.03C15.77 5.88 12.44 4 8.5 4zM6.2 8a.9.9 0 1 1 0-1.8.9.9 0 0 1 0 1.8zm4.6 0a.9.9 0 1 1 0-1.8.9.9 0 0 1 0 1.8zM22 13.75c0-2.55-2.5-4.62-5.58-4.62-3.25 0-5.82 2.07-5.82 4.62s2.57 4.62 5.82 4.62c.68 0 1.33-.08 1.96-.24l1.79.98-.49-1.63A4.5 4.5 0 0 0 22 13.75zm-7.5-.92a.74.74 0 1 1 0-1.48.74.74 0 0 1 0 1.48zm4.1 0a.74.74 0 1 1 0-1.48.74.74 0 0 1 0 1.48z"/></svg>